<?xml version="1.0" encoding="UTF-8"?><!DOCTYPE svg PUBLIC "-//W3C//DTD SVG 1.1//EN" "http://www.w3.org/Graphics/SVG/1.1/DTD/svg11.dtd"><svg xmlns:xlink="http://www.w3.org/1999/xlink" xmlns="http://www.w3.org/2000/svg"><symbol id="android-os" viewBox="0 0 512 512">
<path id="android-os-icon" d="M107.054,183.265c-14.042-0.008-25.422,11.396-25.427,25.426l0.02,106.485
	c0.002,14.078,11.39,25.438,25.433,25.436c14.052,0.001,25.435-11.365,25.419-25.435V208.678
	C132.493,194.651,121.098,183.254,107.054,183.265 M312.114,87.641l17.748-32.411c0.947-1.694,0.325-3.851-1.392-4.808
	c-1.73-0.917-3.869-0.294-4.784,1.411l-17.928,32.75c-31.527-14.022-68.386-13.886-99.537-0.048l-17.945-32.664
	c-0.934-1.725-3.081-2.347-4.776-1.408c-1.727,0.928-2.356,3.089-1.399,4.779l17.756,32.387
	c-34.888,17.994-57.523,52.255-57.505,91.59l227.341-0.023C369.699,139.867,346.95,105.677,312.114,87.641 M203.835,137.724
	c-5.274-0.011-9.572-4.299-9.572-9.596c0.002-5.276,4.288-9.614,9.581-9.613c5.311-0.004,9.606,4.337,9.613,9.611
	C213.459,133.418,209.153,137.722,203.835,137.724 M308.133,137.707c-5.295,0.005-9.605-4.289-9.604-9.603
	c0.018-5.261,4.303-9.604,9.608-9.622c5.267,0.016,9.587,4.355,9.583,9.629C317.731,133.412,313.427,137.707,308.133,137.707
	 M142.352,188.066l0.038,165.022c-0.012,15.011,12.129,27.126,27.133,27.129l18.495,0.008v56.343
	c-0.002,14.026,11.4,25.432,25.411,25.432c14.051,0,25.434-11.414,25.438-25.449v-56.332l34.33-0.006v56.341
	c-0.003,14.019,11.406,25.441,25.419,25.419c14.05,0.009,25.426-11.405,25.423-25.442v-56.325l18.538-0.015
	c14.968,0.006,27.142-12.127,27.145-27.138l-0.028-165.026L142.352,188.066z M430.354,208.653
	c-0.003-14.043-11.385-25.426-25.429-25.422c-14.04-0.011-25.422,11.391-25.419,25.436l0.018,106.486
	c-0.001,14.058,11.376,25.42,25.428,25.424c14.041-0.002,25.417-11.366,25.421-25.436L430.354,208.653z"/>
</symbol><symbol id="apple-os" viewBox="0 0 512 512">
<path id="apple-os-icon" d="M423.754,352.263c-13.494,39.14-49.969,108.441-91.588,109.193
	c-27.609,0.523-36.465-16.355-68.025-16.355c-31.543,0-41.397,15.849-67.502,16.879c-44.153,1.677-108.393-100.042-108.393-188.75
	c0-81.495,52.872-121.895,102.488-122.639c26.604-0.475,51.734,17.942,67.977,17.942c16.283,0,46.811-22.146,78.895-18.891
	c13.42,0.556,51.137,5.413,75.344,40.809C348.719,232.363,354.812,320.033,423.754,352.263z M338.021,50
	c-48.52,1.955-88.103,52.847-82.565,94.948C300.279,148.432,343.312,98.169,338.021,50z"/>
</symbol><symbol id="backpack" viewBox="-223 25 512 512">
<path d="M111.9,306.6c0.1-9.3,0.1-29.9-1.6-50.1c0.1,8.5,0.4,16.3,0.7,20.5C111.1,279.2,111.5,291.5,111.9,306.6z"/>
<path d="M33.7,130.8c0.3-6.6-0.1-13.6,5.5-13.2c2.7,0.2,7.3,0.9,13,2c6.3,1.3,5.4,35.5,5.4,35.5l22.9,8.9
	c0.7-24.8-5.4-53.5-11.6-55.3c-10.4-3-25.5-9.1-40.6-5.8c-10.1,2.2-12.8,39.2-12.8,39.2l17.6,4.6C33.1,146.8,33.3,141.3,33.7,130.8z
	"/>
<path d="M-72.7,256c3.7,1.4,9.8,3.4,17.1,5.7c5.4-15,14.6-26.5,14.6-26.5s2.1-5.6,12.8-3.3
	c10.7,2.2,11.1,7.1,11.1,7.1s-6.9,11.2-13.6,26.3c-0.4,0.9-1,2.1-1.4,3.5c16.9,4.9,33.2,9.3,37.9,9.7c9.2,0.9,32.4,1.9,36.9-20.5
	c4.4-22,8.7-35.5,12.3-43.9c0.7-1.8,1.4-3.4,1.9-4.5c1-2.3,4-6.8,8.5-11.2l0,0c0,0,0-0.1,0.1-0.1c5.9-5.9,14.3-11.6,23.6-11.6
	c0.5,0,1.1,0.1,1.8,0.2c-5.5-6.1-11.7-11.3-18.4-13.9c-1.5-0.6-56.5-22.3-73-20c-0.5,0.1-0.9,0.1-1.3,0.2c0.8-0.1,1.3-0.2,1.3-0.2
	s-37.6,0.9-62.6,25.8c-13,13-24.4,36.3-31.6,58.7C-94.8,243.3-87.6,250.5-72.7,256z"/>
<path d="M0.8,295.2c-7.4-1.4-21.2-5.1-35.8-9.5c-2.2,8.8-0.3,24-0.3,24s-2.9,6.9-14.3,4.4c-9.7-2.1-9.4-9.1-9.4-9.1
	s-2.5-14.2-0.3-26.7c-14-4.4-25.8-8.3-30.2-10c-5.2-2-9-4.8-11.8-7.9c-0.2,1.2-0.4,6.2-0.5,7.4c-9.9,70.5,10.7,100.8,12.1,107.2
	c2,8.6,39.5,26.7,75.7,39.9c21,7.7,44.5,6.2,53.8,5.5l0.7,0C42,393.1,46,322.2,48,278.8C44.9,294.7,18.6,298.4,0.8,295.2z"/>
<path d="M111.9,306.6c-0.4-15-0.7-27.3-0.9-29.7c-0.3-4.1-0.5-11.9-0.7-20.4c-1.4-18-6.1-37.4-10.1-47.5
	c-6.7-16.9-26.1,4.3-31.6,17.7C63,240.6,57.6,400.3,57.1,416.1c13.6-3.5,33-8.6,35.4-12.3c5-7.9,7.8-15.6,9-22
	c0.8-4.3,12-8.4,12-8.4s-0.8-34.5-1.5-62.3l-0.2,0.7C111.8,311.8,111.9,309.9,111.9,306.6z"/>
<path d="M161.6,237.1c0,0-2.9-34.2-3.5-40.9c-1.6-16.1-16.1-67.8-65.5-28.1l13.1,14.3c0,0,33.5-30.1,34.7,41.6
	c0.1,6.1,0.5,14.5,4.2,65.5c4,56.4-18,56.7-18,56.7l1,24c0,0,8.2-2.1,16.6-5.7c12-5.1,23.4-26.2,23.4-57.1
	C167.7,295.2,161.6,237.1,161.6,237.1z"/>
<path d="M-11.4,141.4l10.9-1.7v-9.3l2.1-7.6c0,0-10.1,4.6-13,9.2c-2.9,4.6-4.2,7.1-4.2,9.2
	C-15.6,143.5-11.4,141.4-11.4,141.4z"/>
</symbol><symbol id="badge" viewBox="0 0 512 512">

<path id="badge-3-rounded-icon" d="M231.231,58.094c14.749-10.791,34.788-10.791,49.537,0l20.817,15.23

	c7.227,5.287,15.954,8.123,24.908,8.094l25.794-0.086c18.275-0.061,34.487,11.718,40.076,29.117l7.89,24.559

	c2.738,8.524,8.133,15.949,15.395,21.188l20.918,15.092c14.82,10.693,21.013,29.751,15.308,47.113l-8.053,24.505

	c-2.795,8.506-2.795,17.684,0,26.189l8.053,24.506c5.705,17.361-0.487,36.42-15.308,47.112l-20.918,15.092

	c-7.262,5.239-12.656,12.664-15.395,21.188l-7.89,24.559c-5.589,17.399-21.801,29.178-40.076,29.116l-25.794-0.085

	c-8.954-0.03-17.682,2.806-24.908,8.093l-20.817,15.23c-14.749,10.791-34.788,10.791-49.537,0l-20.817-15.23

	c-7.227-5.287-15.954-8.123-24.908-8.093l-25.794,0.085c-18.275,0.062-34.487-11.717-40.076-29.116l-7.89-24.559

	c-2.738-8.524-8.133-15.949-15.395-21.188l-20.918-15.092c-14.82-10.692-21.013-29.751-15.308-47.112l8.053-24.506

	c2.795-8.506,2.795-17.684,0-26.189L60.126,218.4c-5.705-17.362,0.487-36.42,15.308-47.113l20.918-15.092

	c7.262-5.238,12.656-12.663,15.395-21.188l7.89-24.559c5.589-17.399,21.801-29.178,40.076-29.117l25.794,0.086

	c8.954,0.029,17.682-2.807,24.908-8.094L231.231,58.094z"/>

</symbol><symbol id="bar-chart" viewBox="0 0 512 512">

<path id="bar_chart_4_icon" d="M169.428,462H62.344V358.065h107.084V462z M309.058,308.723H200.923V462h108.135V308.723

	z M447.637,241.533H339.503V462h108.134V241.533z M449.656,50l-87.63,15.162l19.284,19.479L249.515,211.308l-47.869-45.256

	L67.632,299.57l32.968,32.423l99.658-99.654l49.362,46.705l164.53-160.616l18.73,18.906L449.656,50z"/>

</symbol><symbol id="calendar" viewBox="0 0 512 512">
<path id="calendar-8-icon" d="M285.548,114.214V68.485c0-10.035,8.136-18.17,18.171-18.17s18.17,8.135,18.17,18.17v45.729
	c0,10.035-8.135,18.17-18.17,18.17S285.548,124.249,285.548,114.214z M141.219,132.302c10.034,0,18.17-8.137,18.17-18.172V68.403
	c0-10.035-8.136-18.172-18.17-18.172c-10.036,0-18.171,8.137-18.171,18.172v45.727C123.048,124.165,131.183,132.302,141.219,132.302
	z M419.5,127.278V426.61h-328v35.158h363v-334.49H419.5z M386.5,394.917h-329V94.933h43.585v18.533
	c0,22.131,18.004,40.135,40.134,40.135c22.129,0,40.133-18.004,40.133-40.135V94.933h82.233v18.617
	c0,22.129,18.004,40.133,40.134,40.133c22.129,0,40.133-18.004,40.133-40.133V94.933H386.5V394.917z M168.332,284.263h-51.45v51.453
	h51.45V284.263z M168.332,207.146h-51.45v51.451h51.45V207.146z M248.069,284.263h-51.45v51.453h51.45V284.263z M248.069,207.146
	h-51.45v51.451h51.45V207.146z M327.806,284.263h-51.449v51.453h51.449V284.263z M327.808,207.146h-51.451v51.451h51.451V207.146z"/>
</symbol><symbol id="check-mark-3" viewBox="0 0 512 512">

<path id="check-mark-3-icon" d="M256,50C142.229,50,50,142.229,50,256s92.229,206,206,206s206-92.229,206-206S369.771,50,256,50z

	 M220.953,366.959l-97.326-97.352l41.44-41.448l55.884,55.899l129.018-129.018l41.459,41.431L220.953,366.959z"/>

</symbol><symbol id="cone13" viewBox="-1.5 0 15 15">
<g>
	<path d="M7.2,0.5C7,0.2,6.7,0,6.4,0C6.1,0,5.8,0.2,5.6,0.5L4.1,4.8h4.6L7.2,0.5z M7.2,0.5"/>
	<path d="M9.5,7.2H3.3l-1.1,3.2h8.6L9.5,7.2z M9.5,7.2"/>
	<path d="M12,11.2H0.8C0.4,11.2,0,11.6,0,12c0,0.4,0.4,0.8,0.8,0.8H12c0.4,0,0.8-0.4,0.8-0.8C12.8,11.6,12.4,11.2,12,11.2L12,11.2z
		 M12,11.2"/>
</g>
</symbol><symbol id="credit-card" viewBox="0 0 512 512">
<path id="credit-card-5-icon" d="M50,182.667V158.5c0-16.568,13.432-30,30-30h352c16.568,0,30,13.432,30,30v24.167H50z M462,233.333
	V353.5c0,16.568-13.432,30-30,30H80c-16.568,0-30-13.432-30-30V233.333H462z M167.668,313.5H96v19h71.668V313.5z M228.168,274H96v19
	h132.168V274z M416.668,274H357v19h59.668V274z"/>
</symbol><symbol id="external-link" viewBox="0 0 512 512">
<path id="share-4-icon" d="M134.021,328.384c36.645-159.582,219.143-196.722,219.143-196.722V82.534L462,191.191l-108.836,108.66
	v-49.129C353.164,250.723,212.039,244.849,134.021,328.384z M354.049,348.426v40.028H91.01V218.083h57.562
	c11.502-14.814,24.562-28.487,38.979-41.011H50v252.394h345.059V307.482L354.049,348.426z"/>
</symbol><symbol id="facebook" viewBox="0 0 512 512">

<path id="facebook-circle-icon" d="M256.417,50c-113.771,0-206,92.229-206,206s92.229,206,206,206s206-92.229,206-206

	S370.188,50,256.417,50z M317.385,171.192c0,0-20.604,0-28.789,0c-10.162,0-12.28,4.163-12.28,14.678c0,8.75,0,25.404,0,25.404

	h41.069l-3.951,44.596h-37.118v133.227h-53.2V256.435h-27.666v-45.16h27.666c0,0,0-6.493,0-35.565

	c0-33.379,17.849-50.807,57.437-50.807c6.484,0,36.833,0,36.833,0V171.192z"/>

</symbol><symbol id="flickr" viewBox="0 0 512 512">

<path id="flickr-circle-icon" d="M256.417,50c-113.771,0-206,92.229-206,206s92.229,206,206,206s206-92.229,206-206

	S370.188,50,256.417,50z M317.621,324.576c-26.734,0-49.893-15.298-61.205-37.615c-11.311,22.317-34.469,37.615-61.203,37.615

	c-37.873,0-68.576-30.703-68.576-68.575c0-37.875,30.703-68.577,68.576-68.577c26.734,0,49.893,15.298,61.203,37.615

	c11.312-22.317,34.471-37.615,61.205-37.615c37.873,0,68.576,30.702,68.576,68.577C386.197,293.873,355.494,324.576,317.621,324.576

	z M367.91,256.001c0,27.729-22.562,50.288-50.289,50.288c-27.73,0-50.291-22.56-50.291-50.288c0-27.729,22.561-50.289,50.291-50.289

	C345.348,205.712,367.91,228.272,367.91,256.001z"/>

</symbol><symbol id="gear" viewBox="0 0 512 512">

<path id="gear-9-icon" d="M333.813,247.681v-38.223l-20.652-7.344c-7.875-2.799-14.211-8.814-17.41-16.535

	c-0.002-0.002-0.004-0.006-0.004-0.01c-3.211-7.738-2.986-16.475,0.609-24.041l9.408-19.788l-27.029-27.027l-19.783,9.404

	c-7.562,3.596-16.312,3.822-24.047,0.615c-0.004-0.004-0.008-0.004-0.01-0.004c-7.727-3.203-13.73-9.531-16.533-17.412

	l-7.344-20.654h-38.223l-7.346,20.654c-2.801,7.873-8.812,14.211-16.532,17.412c-0.002,0-0.006,0.002-0.01,0.004

	c-7.74,3.209-16.477,2.984-24.045-0.613l-19.785-9.406L78.049,141.74l9.406,19.784c3.596,7.562,3.82,16.312,0.613,24.049

	c-0.002,0.002-0.002,0.004-0.006,0.01c-3.201,7.723-9.529,13.729-17.408,16.531L50,209.458v38.223l20.654,7.344

	c7.873,2.801,14.209,8.814,17.41,16.533c0.002,0.004,0.002,0.008,0.004,0.01c3.209,7.74,2.984,16.477-0.611,24.045l-9.408,19.787

	l27.029,27.025l19.785-9.402c7.562-3.596,16.312-3.82,24.049-0.613c0.002,0.002,0.006,0.004,0.008,0.004

	c7.724,3.203,13.728,9.527,16.53,17.408l7.346,20.653h38.223l7.299-20.521c2.824-7.947,8.891-14.344,16.678-17.582

	c0.004-0.002,0.008-0.002,0.012-0.004c7.666-3.189,16.32-2.969,23.818,0.594l19.91,9.463l27.029-27.025l-9.412-19.799

	c-3.592-7.555-3.814-16.295-0.609-24.023c0.002-0.004,0.004-0.006,0.004-0.01c3.207-7.732,9.539-13.742,17.426-16.547

	L333.813,247.681z M191.907,280.61c-28.742,0-52.042-23.301-52.042-52.041c0-28.742,23.3-52.043,52.042-52.043

	c28.74,0,52.041,23.301,52.041,52.043C243.948,257.31,220.647,280.61,191.907,280.61z M462,360.06v-20.32l-10.979-3.902

	c-4.188-1.488-7.557-4.688-9.258-8.791c-0.002,0-0.002-0.002-0.002-0.004c-1.707-4.115-1.586-8.76,0.326-12.783l5-10.52

	l-14.369-14.367l-10.518,5c-4.02,1.91-8.67,2.031-12.783,0.326c-0.002,0-0.004,0-0.006,0c-4.105-1.705-7.299-5.068-8.787-9.258

	l-3.904-10.98H376.4l-3.904,10.98c-1.49,4.186-4.686,7.555-8.789,9.258c-0.002,0-0.004,0-0.006,0

	c-4.112,1.705-8.757,1.586-12.78-0.326l-10.52-5l-14.369,14.367l5.002,10.52c1.91,4.02,2.029,8.672,0.324,12.783

	c0,0.002,0,0.004-0.002,0.006c-1.701,4.107-5.066,7.299-9.254,8.789l-10.98,3.902v20.32l10.98,3.903

	c4.186,1.488,7.555,4.684,9.254,8.789c0.002,0.002,0.002,0.004,0.002,0.006c1.707,4.113,1.588,8.758-0.324,12.781l-5.002,10.52

	l14.369,14.367l10.52-4.998c4.02-1.912,8.67-2.031,12.782-0.326c0.002,0,0.002,0.002,0.004,0.002

	c4.107,1.701,7.297,5.064,8.789,9.252l3.904,10.982h20.32l3.879-10.91c1.502-4.225,4.727-7.625,8.867-9.348

	c0.002,0,0.004-0.002,0.006-0.002c4.074-1.695,8.676-1.578,12.662,0.316l10.584,5.031l14.369-14.367l-5.002-10.525

	c-1.91-4.018-2.029-8.664-0.326-12.771c0-0.002,0.002-0.004,0.002-0.004c1.707-4.111,5.072-7.307,9.264-8.799L462,360.06z

	 M386.561,377.564c-15.279,0-27.665-12.387-27.665-27.665c0-15.279,12.386-27.666,27.665-27.666s27.666,12.387,27.666,27.666

	C414.227,365.178,401.84,377.564,386.561,377.564z"/>

</symbol><symbol id="globe" viewBox="0 0 512 512">

<path id="globe-3-icon" d="M462,256c0-115.604-93.762-206-206-206C144.542,50,50,139.449,50,256C50,373.234,145.125,462,256,462

	C367.564,462,462,372.406,462,256z M158.527,180.417c-3.932,18.902-6.367,39.029-7.146,59.793H92.283

	c2.635-27.648,12.112-53.299,26.723-75.242C131.695,171.391,145.063,176.438,158.527,180.417z M151.471,271.789

	c0.898,20.948,3.489,41.223,7.6,60.219c-13.784,4.044-26.991,9.04-39.779,15.46c-14.774-22.038-24.356-47.847-27.009-75.679H151.471

	z M167.359,362.459c4.935,14.79,11.216,29.376,19.297,42.713c-17.433-8.118-33.21-19.194-46.675-32.595

	C148.471,368.729,157.635,365.345,167.359,362.459z M271.789,319.158v-47.369h57.664c-0.857,18.496-3.139,36.317-6.701,52.957

	C306.469,321.748,289.355,319.859,271.789,319.158z M314.279,355.276c-7.732,22.147-21.896,50.895-42.49,62.079v-66.595

	C286.449,351.393,300.703,352.913,314.279,355.276z M271.789,240.21v-46.786c17.764-0.71,35.062-2.634,51.508-5.689

	c3.383,16.53,5.504,34.188,6.242,52.476H271.789z M271.789,161.82V92.54c21.248,11.54,35.648,41.664,43.357,64.609

	C301.309,159.601,286.762,161.175,271.789,161.82z M240.21,92.823v68.975c-14.788-0.659-29.156-2.227-42.831-4.649

	C205.049,134.317,219.288,104.567,240.21,92.823z M240.21,193.4v46.81h-57.225c0.738-18.289,2.86-35.946,6.242-52.477

	C205.511,190.76,222.63,192.674,240.21,193.4z M189.774,324.747c-3.563-16.641-5.845-34.46-6.701-52.958h57.138v47.392

	C222.828,319.899,205.895,321.779,189.774,324.747z M240.21,350.783v66.289c-20.311-11.4-34.28-39.795-41.965-61.795

	C211.661,352.942,225.735,351.429,240.21,350.783z M345.166,362.458c9.588,2.844,18.629,6.176,27.02,9.956

	c-13.314,13.288-28.898,24.299-46.115,32.418C334.096,391.512,340.279,377.099,345.166,362.458z M353.455,332.006

	c4.109-18.995,6.701-39.27,7.6-60.217h58.662c-2.645,27.748-12.178,53.483-26.877,75.478

	C380.027,340.88,367.004,335.981,353.455,332.006z M393.127,165.169c14.533,21.899,23.963,47.477,26.59,75.041h-58.572

	c-0.779-20.763-3.215-40.89-7.146-59.792C367.406,176.455,380.635,171.458,393.127,165.169z M372.582,139.989

	c-8.266,3.748-17.174,7.057-26.615,9.893c-4.709-14.58-10.629-28.794-18.174-41.894C344.5,116.106,359.625,126.968,372.582,139.989z

	 M184.942,107.629c-7.712,13.324-13.653,27.607-18.385,42.252c-9.578-2.878-18.609-6.241-26.979-10.058

	C152.69,126.684,168.013,115.751,184.942,107.629z"/>

</symbol><symbol id="help" viewBox="0 0 512 512">

<path id="help-2-icon" d="M256,50C142.229,50,50,142.229,50,256s92.229,206,206,206s206-92.229,206-206S369.771,50,256,50z

	 M258.25,392.9c-16.162,0-29.27-13.107-29.27-29.275c0-16.16,13.107-29.263,29.27-29.263c16.166,0,29.27,13.103,29.27,29.263

	C287.52,379.793,274.416,392.9,258.25,392.9z M281.262,306.385v5.266c0,0-43.883,0-48.248,0v-5.266

	c0-14.898,2.174-34.012,19.471-50.628c17.299-16.619,38.916-30.346,38.916-51.106c0-22.95-15.928-35.09-36.01-35.09

	c-33.463,0-35.65,34.705-36.475,42.347h-46.928c1.25-36.189,16.545-86.808,83.684-86.808c58.182,0,84.34,38.967,84.34,75.508

	C340.012,258.77,281.262,268.873,281.262,306.385z"/>

</symbol><symbol id="home" viewBox="0 0 512 512">

<path id="home-4-icon" d="M419.492,275.815v166.213H300.725v-90.33h-89.451v90.33H92.507V275.815H50L256,69.972l206,205.844H419.492

	z M394.072,88.472h-47.917v38.311l47.917,48.023V88.472z"/>

</symbol><symbol id="magnifier" viewBox="0 0 512 512">

<path id="magnifier-2-icon" d="M460.355,421.59L353.844,315.078c20.041-27.553,31.885-61.437,31.885-98.037

	C385.729,124.934,310.793,50,218.686,50C126.58,50,51.645,124.934,51.645,217.041c0,92.106,74.936,167.041,167.041,167.041

	c34.912,0,67.352-10.773,94.184-29.158L419.945,462L460.355,421.59z M100.631,217.041c0-65.096,52.959-118.056,118.055-118.056

	c65.098,0,118.057,52.959,118.057,118.056c0,65.096-52.959,118.056-118.057,118.056C153.59,335.097,100.631,282.137,100.631,217.041

	z"/>

</symbol><symbol id="map" viewBox="0 0 512 512">
<path id="map-5-icon" d="M253.001,68.127c-48.984,0-88.697,39.712-88.697,88.692c0,72.839,69.762,80.543,88.697,191.323
	c18.937-110.785,88.693-118.484,88.693-191.323C341.694,107.839,301.984,68.127,253.001,68.127z M253.001,186.477
	c-17.569,0-31.81-14.241-31.81-31.807c0-17.568,14.24-31.812,31.81-31.812c17.568,0,31.809,14.243,31.809,31.812
	C284.81,172.235,270.569,186.477,253.001,186.477z M462,443.873l-115.14-41.666l-93.665,41.666l-93-41.666L50,443.873
	l67.562-134.445l75.372-32.785c5.425,7.85,10.593,16.396,15.209,26.238c-16.398,7.023-2.531,1.023-68.669,29.756l-28.125,55.967
	l46.432-17.559l26.996-48.172l-10.916,52.334l71.334,32l8-36.068l9,36.4l71.666-32.332l-10.959-53.834l27.205,50.105l51.258,18.549
	l-28.786-57.283l-73.996-31.42c4.667-9.658,9.991-18.295,15.428-26.043l80.427,34.146L462,443.873z"/>
</symbol><symbol id="menu" viewBox="0 0 512 512">
<path id="menu-icon" d="M462,163.5H50v-65h412V163.5z M462,223.5H50v65h412V223.5z M462,348.5H50v65h412V348.5z"/>
</symbol><symbol id="note" viewBox="0 0 512 512">
<path id="note-19-icon" d="M196.231,296.612h-72.128v-27.31h72.128V296.612z M462,115.856L315.839,261.945l-60.76-60.726
	L401.241,55.128L462,115.856z M348.278,274.426c0,17.83,0,31.954,0,38.671c0,58.959-72.79,35.338-72.79,35.338
	s22.287,71.074-32.691,71.074c-29.948,0-44.896,0-155.434,0V109.4h214.654l37.381-37.362H50v384.834h193.366
	c63.67,0,142.274-83.196,142.274-140.55v-79.241L348.278,274.426z M238.413,219.604l58.966,58.932l-78.021,17.661L238.413,219.604z"/>
</symbol><symbol id="phone" viewBox="0 0 512 512">
<path id="phone-5-icon" d="M280.083,189.335c12.754,3.8,24.059,12.465,30.891,25.095c6.832,12.63,7.898,26.833,4.099,39.588
	l-49.836-14.847L280.083,189.335z M286.936,166.335c18.641,5.553,35.163,18.217,45.147,36.677
	c9.985,18.458,11.543,39.218,5.99,57.857l30.667,9.138c7.892-26.49,5.68-55.99-8.51-82.22c-14.19-26.231-37.67-44.228-64.158-52.12
	L286.936,166.335z M302.924,112.666c32.377,9.646,61.072,31.641,78.414,63.702c17.344,32.062,20.049,68.116,10.403,100.491
	l31.436,9.365c12.04-40.421,8.664-85.435-12.988-125.462c-21.653-40.027-57.479-67.489-97.898-79.531L302.924,112.666z
	 M318.549,451.475c-26.055,12.147-86.85,47.641-184.847-147.52c-97.165-193.501-32.179-223.592-8.233-236.313
	c0.576-0.295,35.029-17.623,35.068-17.642l58.123,115.711l-34.664,17.406c-36.449,19.923,39.445,171.092,76.714,152.647
	c1.51-0.682,34.24-17.089,34.37-17.154l58.593,115.328C353.547,434.002,320.56,450.541,318.549,451.475z"/>
</symbol><symbol id="redo" viewBox="0 0 512 512">

<path id="redo-4-icon" d="M423.367,139.884L462,101.364v156.152H305.734l42.175-42.176

	c-102.878-130.117-373.203,1.67-193.923,230.027C-114.058,238.544,194.399-77.554,423.367,139.884z"/>

</symbol><symbol id="snowflake" viewBox="0 0 512 512">
<polygon id="christmas-snowflake-icon" points="441.535,346.644 373.955,307.624 438.697,290.354 431.342,262.782 338.967,287.424 
	284.535,255.999 339.49,224.271 431.299,249.242 438.787,221.705 374.311,204.168 441.535,165.356 427.266,140.644 359.686,179.66 
	377.1,114.956 349.545,107.541 324.697,199.861 270.27,231.285 270.27,167.831 337.797,100.809 317.695,80.554 270.27,127.624 
	270.27,50 241.732,50 241.732,128.036 194.404,80.604 174.203,100.76 241.732,168.438 241.732,231.286 186.779,199.558 
	162.498,107.565 134.906,114.847 151.957,179.455 84.732,140.644 70.465,165.356 138.045,204.373 73.303,221.645 80.66,249.218 
	173.035,224.574 227.465,255.999 172.51,287.727 80.701,262.758 73.211,290.293 137.688,307.832 70.465,346.644 84.732,371.356 
	152.312,332.337 134.898,397.042 162.457,404.459 187.303,312.137 241.732,280.711 241.732,344.169 174.203,411.191 
	194.307,431.446 241.732,384.376 241.732,462 270.27,462 270.27,383.964 317.598,431.396 337.797,411.24 270.27,343.562 
	270.27,280.712 325.223,312.439 349.502,404.435 377.094,397.15 360.043,332.545 427.268,371.356 "/>
</symbol><symbol id="streetsweeping-icon" viewBox="-223 25 512 512">
<path fill-rule="evenodd" clip-rule="evenodd" d="M-4.2,167.9H-42l6.5-18.5c2-6,8-8.6,12.4-8.6c4.5,0,10.5,2.4,12.5,8.6L-4.2,167.9
	L-4.2,167.9z M73.7,351.8v-19.7c0-6.5,2.3-14.1,3.9-16.6H27V176.1l-94.9,0.1l-58.2,85.6v44.5h113.4v45.5H73.7L73.7,351.8z
	 M126.7,313.1c-11.6,0-20.5,8.9-20.5,20c0,11.8,8.8,20.5,20.5,20.5c11.3,0,20.5-8.7,20.5-20.5C147.1,322,138,313.1,126.7,313.1
	L126.7,313.1z M126.9,290.1c-24.1,0-43.6,19.3-43.6,43c0,24.1,19.5,43.3,43.6,43.3c23.8,0,43.4-19.3,43.4-43.3
	C170.3,309.4,150.7,290.1,126.9,290.1L126.9,290.1z M-64.9,186.7l-50.4,75.9l132.1,0.2v-76.1H-64.9L-64.9,186.7z M181.2,352.8
	l57.8-14.8v-22.4h-63.4c2.7,3.7,5.6,11.5,5.6,17.5V352.8L181.2,352.8z M82.3,307.1c9-14.9,25.5-24.9,44.4-24.9
	c19,0,35.5,10.1,44.8,25l67.4-0.1V177.4H34.8v129.7H82.3L82.3,307.1z M-150.5,313.7v22.2h130.2v-22.2H-150.5L-150.5,313.7z
	 M-149.9,342.4v30.8h10.7v-30.8H-149.9L-149.9,342.4z M-130,342.4v30.8h10.7v-30.8H-130L-130,342.4z M-110.2,342.4v30.8h10.7v-30.8
	H-110.2L-110.2,342.4z M-90.4,342.4v30.8h10.7v-30.8H-90.4L-90.4,342.4z M-70.6,342.4v30.8h10.7v-30.8H-70.6L-70.6,342.4z
	 M-50.8,342.4v30.8h10.7v-30.8H-50.8L-50.8,342.4z M-30.9,342.4v30.8h10.7v-30.8H-30.9L-30.9,342.4z"/>
</symbol><symbol id="threeoneone" viewBox="-223 25 512 512">


		<path d="M32,75c-114.8,0-206,92.7-206,206s91.2,206,206,206c113.1,0,206-92.7,206-206S145.1,75,32,75z M-57.5,349.7
			c-22,0-38.8-8.6-47.3-20.6l11.8-13.7c8.4,10.3,22,15.4,33.8,15.4c16.9,0,25.3-6.9,25.3-18.9s-10.1-17.2-27-17.2
			c-5.1,0-11.8,0-13.5,0v-20.6c1.7,0,10.1,0,13.5,0c15.2,0,25.3-5.2,25.3-17.2c0-12-11.8-17.2-25.3-17.2c-11.8,0-23.6,5.2-32.1,13.7
			l-10.1-13.7c10.1-12,25.3-20.6,45.6-20.6c27,0,45.6,12,45.6,34.3c0,17.2-13.5,27.5-27,29.2c11.8,1.7,28.7,10.3,28.7,30.9
			C-11.9,334.2-28.8,349.7-57.5,349.7z M67.5,347.9h-22v-97.8l-20.3,20.6L13.4,257l35.5-36h18.6C67.5,220.9,67.5,347.9,67.5,347.9z
			 M153.6,347.9h-22v-97.8L113,272.4l-11.8-13.7l35.5-36h18.6v125.3H153.6z"/>


</symbol><symbol id="trash-can" viewBox="0 0 512 512">
<path id="trash-can-icon" d="M424.562,78.022v40.032H87.438V78.022h94.938c15.464,0,28-12.546,28-28.022h91.25
	c0,15.477,12.536,28.022,28,28.022H424.562z M406.334,148.079V462H105.666V148.079H406.334z M197.333,210.462
	c0-8.291-6.716-15.012-15-15.012s-15,6.721-15,15.012v190.153c0,8.291,6.716,15.012,15,15.012s15-6.721,15-15.012V210.462z
	 M271,210.462c0-8.291-6.716-15.012-15-15.012s-15,6.721-15,15.012v190.153c0,8.291,6.716,15.012,15,15.012s15-6.721,15-15.012
	V210.462z M344.667,210.462c0-8.291-6.716-15.012-15-15.012s-15,6.721-15,15.012v190.153c0,8.291,6.716,15.012,15,15.012
	s15-6.721,15-15.012V210.462z"/>
</symbol><symbol id="tv" viewBox="-223 25 512 512">
<g>
	<path d="M117.9,302.4c5.1-5.1,5.1-13.3,0-18.3c-5.1-5.1-13.3-5.1-18.3,0c-5.1,5.1-5.1,13.3,0,18.3
		C104.6,307.5,112.8,307.5,117.9,302.4z M113.5,285.6l2.9,2.9l-4.8,4.8l-2.9-2.9L113.5,285.6z"/>
	<path d="M99.6,322.7c-5.1,5.1-5.1,13.3,0,18.3c5.1,5.1,13.3,5.1,18.3,0c5.1-5.1,5.1-13.3,0-18.3
		C112.8,317.7,104.6,317.7,99.6,322.7z M105.9,331.9l-4.8-4.8l2.9-2.9l4.8,4.8L105.9,331.9z"/>
	<rect x="91.5" y="238.5" width="34.6" height="4.8"/>
	<path d="M-51,242c-11.7,11.7-11.7,82.7,0.2,94.6c12.7,12.7,101.1,12.7,113.7,0c11.8-11.8,11.9-82.8,0.2-94.6
		C51.3,230.1-38.6,229.6-51,242z"/>
	<path d="M32.6,75c-113.8,0-206,92.2-206,206s92.2,206,206,206s206-92.2,206-206S146.4,75,32.6,75z M146.4,365.8H-81.1V211.2H23.6
		l-35.9-35.8l8.2-8.2l36.7,36.7l36.8-36.8l8.2,8.2l-35.9,35.9h104.7V365.8z"/>
	<rect x="91.5" y="249.2" width="34.6" height="4.8"/>
	<rect x="91.5" y="260.1" width="34.6" height="4.8"/>
</g>
</symbol><symbol id="twitter" viewBox="0 0 512 512">

<path id="twitter-4-icon" d="M256,50C142.229,50,50,142.229,50,256s92.229,206,206,206s206-92.229,206-206S369.771,50,256,50z

	 M359.599,220.506c3.021,67.199-47.096,142.124-135.802,142.124c-26.981,0-52.096-7.911-73.238-21.466

	c25.347,2.987,50.646-4.044,70.734-19.786c-20.907-0.386-38.554-14.198-44.632-33.181c7.486,1.432,14.851,1.013,21.575-0.816

	c-22.976-4.617-38.839-25.317-38.321-47.453c6.44,3.58,13.81,5.729,21.642,5.977c-21.278-14.221-27.303-42.318-14.785-63.789

	c23.563,28.906,58.77,47.928,98.478,49.92c-6.969-29.886,15.702-58.667,46.542-58.667c13.742,0,26.16,5.802,34.874,15.088

	c10.884-2.143,21.108-6.119,30.341-11.594c-3.567,11.157-11.144,20.521-21.008,26.433c9.665-1.153,18.874-3.722,27.441-7.523

	C377.035,205.355,368.935,213.771,359.599,220.506z"/>

</symbol><symbol id="user" viewBox="0 0 512 512">
<path id="user-14-icon" d="M461.968,359.358h-79.937c-0.004-86.998-43.49-45.648-43.49-121.885c0-27.52,18.017-42.455,41.15-42.455
	c34.181,0,57.969,32.635,25.601,93.66c-10.634,20.049,11.323,24.812,34.912,30.254C463.782,324.37,461.968,336.802,461.968,359.358z
	 M71.796,318.933c23.589-5.441,45.546-10.205,34.912-30.254c-32.368-61.025-8.58-93.66,25.601-93.66
	c23.134,0,41.15,14.936,41.15,42.455c0,76.236-43.486,34.887-43.49,121.885H50.032C50.032,336.802,48.218,324.37,71.796,318.933z
	 M332.115,308.509c-29.67-6.846-57.289-12.838-43.913-38.055c40.715-76.762,10.792-117.812-32.202-117.812
	c-43.842,0-73.027,42.625-32.201,117.812c13.776,25.371-14.883,31.357-43.915,38.055c-29.658,6.84-27.377,22.477-27.377,50.85
	h206.985C359.492,330.985,361.774,315.349,332.115,308.509z"/>
</symbol><symbol id="video-play" viewBox="0 0 512 512">
<path id="video-play-icon" d="M256,52.481c-113.771,0-206,91.117-206,203.518c0,112.398,92.229,203.52,206,203.52
	c113.772,0,206-91.121,206-203.52C462,143.599,369.772,52.481,256,52.481z M197.604,368.124V148.872l178.799,109.627
	L197.604,368.124z"/>
</symbol><symbol id="warning" viewBox="0 0 512 512">

<path id="warning-4-icon" d="M228.55,134.812h54.9v166.5h-54.9V134.812z M256,385.188c-16.362,0-29.626-13.264-29.626-29.625

	c0-16.362,13.264-29.627,29.626-29.627c16.361,0,29.625,13.265,29.625,29.627C285.625,371.924,272.361,385.188,256,385.188z M256,90

	c91.742,0,166,74.245,166,166c0,91.741-74.245,166-166,166c-91.742,0-166-74.245-166-166C90,164.259,164.245,90,256,90z M256,50

	C142.229,50,50,142.229,50,256s92.229,206,206,206s206-92.229,206-206S369.771,50,256,50z"/>

</symbol><symbol id="wheelchair" viewBox="0 0 100 100"><g><path fill-rule="evenodd" clip-rule="evenodd" d="M67.324,80.431L67.5,80.46C62.644,92.275,51.086,100,38.238,100   c-17.441,0-31.6-14.065-31.6-31.414c0-11.68,6.517-22.395,16.915-27.82l0.911,9.035c-6.021,4.397-9.565,11.372-9.565,18.785   c0,12.877,10.539,23.339,23.523,23.339c12.98,0,23.52-10.462,23.52-23.339c0-0.293-0.005-0.604-0.015-0.887L67.324,80.431z"/><path fill-rule="evenodd" clip-rule="evenodd" d="M25.312,9.332l-0.175,0.185c0-0.054,0-0.126,0-0.185   C25.137,4.179,29.398,0,34.648,0c5.255,0,9.517,4.179,9.517,9.332c0,5.157-4.262,9.341-9.517,9.341c-0.122,0-0.243-0.01-0.365-0.01   l0.186,0.01l1.081,18.313H60.32v7.715H35.905l0.36,6.643h31.955L81.507,80.07l8.981-3.945l2.873,6.293L76.48,89.772L62.839,59.429   H28.546L25.137,9.517L25.312,9.332z"/></g></symbol><symbol id="x-mark-3" viewBox="0 0 512 512">

<path id="x-mark-3-icon" d="M256,50C142.229,50,50,142.229,50,256s92.229,206,206,206s206-92.229,206-206S369.771,50,256,50z

	 M334.124,378.545l-77.122-77.117l-77.123,77.127l-41.425-41.449l77.106-77.117l-77.115-77.11l41.448-41.424l77.103,77.092

	l77.09-77.102l41.459,41.432l-77.104,77.108l77.113,77.102L334.124,378.545z"/>

</symbol><symbol id="youtube" viewBox="0 0 512 512">
<path id="youtube-new-4-icon" d="M256,50C142.229,50,50,142.229,50,256s92.229,206,206,206s206-92.229,206-206S369.771,50,256,50z
	 M377.13,301.375c-3.877,32.944-16.937,37.485-42.925,39.254c-36.948,2.514-119.437,2.516-156.411,0
	c-25.988-1.769-39.047-6.31-42.924-39.254c-2.887-24.545-2.877-66.291,0-90.749c3.877-32.945,16.936-37.486,42.924-39.253
	c36.975-2.518,119.463-2.516,156.411,0c25.988,1.767,39.048,6.308,42.925,39.253C380.017,235.17,380.007,276.915,377.13,301.375z
	 M231.445,221.647l65.96,34.392l-65.96,34.389V221.647z"/>
</symbol></svg>