<svg id="Layer_1" xmlns="http://www.w3.org/2000/svg" xmlns:xlink="http://www.w3.org/1999/xlink" viewBox="0 0 796 249">
  <style>
    .st0, .st1 {
    fill: #01522f
    }

    .st1 {
    clip-path: url(#SVGID_2_)
    }
  </style>
  <path class="st0" d="M400.5 83.5c-1.5 0-1.9.9-1.9 2.8v51.3c0 5.8 2.1 7.7 5.6 8.4 3 .9 6 1.3 6 3.9 0 1.9-.9 3-4.3 3-3.7 0-6-.9-17-.9-11.6 0-14.6.9-18.9.9-2.4 0-3.7-.9-3.7-3.6 0-1.3 1.1-2.6 3.4-3 7.9-1.5 8.8-3.4 8.8-9.4V30.5c0-5.8-1.9-6.4-4.3-7.5-5.8-1.7-7.3-.9-7.3-3.4 0-1.7.9-2.8 4.5-2.8s11.2.9 17.4.9c6.2 0 12.2-.9 16.3-.9 3.9 0 4.7.9 4.7 3 0 3-2.1 3-6.2 3.9-2.8.4-5.1 1.9-5.1 6v44.4c0 1.9.4 2.6 2.1 2.6h38.2c1.7 0 1.9-.6 1.9-3V31.2c0-5.6-1.9-7.1-5.4-8.2-4.1-.6-6.4-.9-6.4-3 0-2.4 1.9-3.2 4.9-3.2 4.3 0 8.8.9 17.2.9 11.2 0 14.2-.9 18.2-.9 2.6 0 3.6.9 3.6 2.6 0 2.6-3 3.6-7.7 4.3-2.8.4-4.7 2.1-4.7 4.7v109c0 4.9 1.5 7.5 3.9 8.6 3.9 1.9 7.9 1.5 7.9 4.3 0 1.5-.6 2.6-4.1 2.6-3.6 0-9-.9-17.6-.9-9 0-12 .9-15.4.9-4.7 0-5.8-.9-5.8-3.4 0-1.7 1.3-2.4 6-3.4 4.3-.9 5.4-3 5.4-8.6V86.1c0-1.7-.4-2.6-1.9-2.6h-38.3"></path>
  <path class="st0" d="M491.1 99.6c-3.9 0-5.4 1.5-5.4 4.9 0 22.1 9.4 39.3 24.2 39.3 9.9 0 15.7-4.9 18.7-12.2 1.7-3.9 2.1-6.7 3.9-6.7 1.3 0 2.1.6 2.1 3 0 3.2-1.1 7.1-3 10.7-4.3 9.2-14.2 16.1-26.4 16.1-24.2 0-38.8-20.6-38.8-49.1 0-35.4 18-53.4 38.6-53.4 17.2 0 29.6 12.9 29.6 34.5 0 12-.2 12.9-6.2 12.9h-37.3m-5-11.8c0 4.1.6 5.1 8.2 5.1 4.1 0 7.5-.4 10.5-.9 6.4-.9 10.7-2.6 11.8-4.3 1.7-1.7 2.4-4.1 2.4-9 0-12.7-5.8-20.4-14.2-20.4-10.9 0-18.7 14.2-18.7 29.2v.3z"></path>
  <defs>
    <path id="SVGID_1_" d="M.1.7h795.4V249H.1z"></path>
  </defs>
  <clipPath id="SVGID_2_">
    <use xlink:href="#SVGID_1_" overflow="visible"></use>
  </clipPath>
  <path class="st1" d="M586.1 71.5c0-10.1-2.8-13.3-8.4-13.3-9.9 0-14.6 7.9-17.6 18.4-1.5 4.7-4.1 8.4-7.1 10.7-2.6 1.9-5.4 3-8.6 3-4.3 0-6-1.5-6-5.8 0-12.7 18.2-32.4 44.4-32.4 8.2 0 13.3 1.1 16.5 3.9 3.4 2.6 4.7 6.9 4.7 12.7v64.4c0 5.4 1.9 7.7 5.6 7.7 3.9 0 5.6-1.9 6.4-4.1 1.1-2.1 1.5-4.3 3-4.3 1.3 0 1.7 1.1 1.7 3.6 0 4.7-6 18-19.1 18-9.2 0-11.6-7.3-13.1-11.6-.6-1.7-1.3-3-2.4-3-1.7 0-4.9 4.1-10.1 7.9-4.7 3.9-11.2 7.3-19.7 7.3-9.9 0-17.2-6.9-17.2-19.5 0-10.7 5.8-18.2 23.8-30 7.3-4.7 12.2-7.7 15.7-10.3 5.6-3.4 7.3-5.6 7.3-10.3v-13m-27.7 60.3c0 7.9 4.1 12 10.1 12 4.5 0 8.4-2.6 12.4-6.4 3.9-3.9 5.4-6.7 5.4-12v-23.8c0-2.4-.4-2.8-1.5-2.8s-2.1.2-4.9 2.4c-4.5 3-8.8 6.7-12 10.3-5.8 6-9.4 12.7-9.4 20.2v.1z"></path>
  <path class="st1" d="M627.7 21.9c0-4.1-1.1-5.4-5.8-6.2-3.9-.9-4.9-1.1-4.9-3 0-1.7.9-2.4 3.9-3.2 8.6-2.8 14.4-4.9 18.2-6.6 3-1.5 4.1-2.1 5.2-2.1 1.3 0 1.5 1.3 1.5 4.3v134.3c0 5.4 2.1 5.8 8.8 7.5 2.4.6 4.3 1.1 4.3 3.2 0 1.7-1.5 2.8-3.2 2.8-2.1 0-4.5-.9-18.7-.9-13.1 0-15.4.9-17.8.9-1.5 0-3.4-.6-3.4-2.8 0-1.7 1.9-2.8 3.6-3.2 7.3-1.1 8.4-3.2 8.4-8.8V21.9M681.2 133.5c0 7.9 2.6 9.7 6.7 9.7 3.9 0 6.2-3 7.9-5.8 1.7-2.8 2.8-5.6 4.7-5.6 1.3 0 2.1.6 2.1 2.1 0 2.8-4.3 20.6-21.4 20.6-5.8 0-10.3-1.5-13.3-4.7-3.2-3.2-4.7-8.4-4.7-15.2V65.7c0-1.9-1.1-2.8-2.4-3.2-1.3-.2-3.4-.2-4.9-.2-1.9-.2-3.4-.4-3.4-2.8 0-1.3 1.3-2.8 4.1-5.6 6-5.4 10.9-11.2 18.4-24 2.2-3.9 2.6-5.1 4.1-5.1 1.3 0 2.1.4 2.1 4.7v20.8c0 3.4 1.1 4.7 4.3 4.7h9.7c3.6 0 4.7.6 4.7 3.6 0 3.2-.9 4.5-5.1 4.5h-10.1c-2.6 0-3.4.9-3.4 4.3v66.1"></path>
  <path class="st1" d="M712 21.9c0-4.1-1.1-5.4-5.8-6.2-3.9-.9-5.1-1.1-5.1-3 0-2.1 1.5-2.4 6-3.6 9-3 13.7-5.2 16.7-6.4 2.8-1.3 3.6-1.9 4.9-1.9.9 0 1.3.9 1.3 3.9v61.1c0 1.3.4 1.9 1.3 1.9s1.7-.6 2.6-1.3c4.7-4.3 12.9-12.9 25.1-12.9 13.5 0 24.2 8.8 24.9 25.7V138c0 6.2 2.4 8.6 6.6 9.2 3.7.6 4.9 1.3 4.9 3 0 1.9-1.5 2.6-3.2 2.6-1.1 0-6.9-.9-16.9-.9-11.4 0-13.7.9-16.1.9-2.6 0-3.9-.6-3.9-2.8 0-1.7 1.3-2.1 3.4-2.6 4.9-1.1 7.1-2.6 7.1-7.3V81.6c0-5.1-1.3-9.2-3.7-12-2.8-3.4-6.9-5.1-12.2-5.1-4.9 0-10.1 2.1-13.9 5.4-3.6 3.2-6 7.5-6 12.2v57.1c0 4.7 2.4 7.1 8.4 8.4 3.2.6 3.9 1.3 3.9 2.8 0 1.9-1.5 2.6-3.2 2.6-1.7 0-3.9-.9-18.7-.9-11.2 0-13.1.9-16.3.9-1.7 0-3.2-.9-3.2-2.8 0-1.7 1.5-2.8 3.4-3.2 6.4-.6 7.7-2.8 7.7-10.5V21.9"></path>
  <path d="M293.5 13l.2 98.4c0 6.3 0 25.5-48.3 25.5h-9c-48.3-.1-48.3-19.3-48.3-25.5l.2-98.4h-66.6l.1 113.1c0 31.3 87.7 33.7 114.6 33.7h9c26.9 0 114.6-2.4 114.6-33.7l.1-113.1h-66.6" fill="#fff"></path>
  <path class="st0" d="M298.7 111.4V17.8h56.5s-.1 104.6-.1 108.3c0 20.5-56.4 28.8-109.7 28.8v-13c26.7-.1 53.3-5.7 53.3-30.5"></path>
  <defs>
    <path id="SVGID_3_" d="M.1.7h795.4V249H.1z"></path>
  </defs>
  <clipPath id="SVGID_4_">
    <use xlink:href="#SVGID_3_" overflow="visible"></use>
  </clipPath>
  <path d="M183.1 111.4V17.8h-56.4s.1 104.6.1 108.3c0 20.5 56.4 28.8 109.7 28.8v-13c-26.8-.1-53.4-5.7-53.4-30.5" clip-path="url(#SVGID_4_)" fill="#ed7625"></path>
  <path d="M28.8 114.8c1-6.4 5.3-22.3 10.2-37.9-11.2 16.9-23.9 37.2-31.7 54.7-.9 2-3 2.4-4.8.5-1.5-1.6-2.5-4-2.5-7.1 0-2.7.7-5.8 2-8.9 5.9-14.1 28.4-51 43.4-70.9 1.7-2.3 4-3.1 6.7-.9 3.8 3.3 5.8 7 5.7 11.5 0 2.5-.8 6.1-2.1 10.2-4.5 12.7-7.4 21.3-12.6 40.3 15-22.4 30.3-36.2 46.1-61 1.9-3 3.7-3.1 6.4-.5 2.8 3 4.1 6.4 4 9.8 0 3.8-1.6 7.8-3.5 11.6-9.9 18.2-24.1 46.1-31.2 65.9-1 2.8-2.3 2.8-4.5.8-1.7-1.6-3.2-4-3.2-8.1 0-2.3.3-5 1.2-8.1v.1c1.7-6.6 8.8-21.5 15.8-35.6-12.6 15.9-26.4 34.9-34.9 50-1.6 2.8-2.9 2.8-5 1.2-3.8-3-6.2-6.8-6.1-12.8.2-1.4.3-3 .6-4.8" clip-path="url(#SVGID_4_)" fill="#01522f"></path>
  <path class="st0" d="M143.6 105c-5.8 8.2-15.1 12.9-26.6 17.1-8.3 17.8-18.5 39.4-30.6 43.5-3.2 1.1-6.1 1-9.2-3.5-1.9-3-3.8-7.2-3.7-11.6.1-1.6.6-4 1.5-6.4 4.7-11.6 16.2-19.6 29.7-24.4l2.3-4.7c-3.7 2.5-7.3 3.6-11.4 3.4-6.9-.3-9.7-5.6-9.4-11.4.1-2.9.8-6.2 2.2-9.5C91.9 89 99.2 75.4 108.2 64c1.9-2.3 3.9-2.3 5.4-.1 1.3 2 2.4 4.5 2.3 6.7-.1 3.4-1.9 7.4-5.3 12.3-5 7.2-8.1 12.7-10.9 19.1-2.1 4.9-3.6 10.3 0 10.5 3.6.1 10.1-7.7 17.3-18.8 9.8-15.1 13.9-23.4 17.4-28.2 2-2.4 3.8-2.6 5.3-1 2 2.1 2.4 4.2 2.3 7.1-.1 2.7-.9 5.7-2.8 9.1-4.3 7.5-12 20.6-18.1 33.4 8.6-4.7 16-11.5 20.7-17.5 1.9-2.4 4-2.6 4.4-.8.3 2.1-.1 5.7-2.6 9.2m-57.5 38.6c-3.7 6.3-4.9 11.9-3.6 13.2.9.9 4-3 8.1-9.6 3.1-5 6.7-11.6 10.3-18.8-6.8 4.3-11.7 10-14.8 15.2zM432.4 170.2c4.1 1.3 6.4 1.9 7 1.9 1.1 0 2.2-.3 3.4-.9 1.2-.6 2.1-1.6 2.8-2.9h2.5l-5.9 26.3h-2.7c-.2-5.2-1.1-9.4-2.7-12.6-3.2-6-8.8-9-16.9-9-8.2 0-15.7 3.2-22.7 9.7-6.9 6.5-11.9 15.4-14.9 26.7-2.8 10.4-2.3 18.7 1.5 25 3.8 6.2 9.9 9.3 18.2 9.3 6 0 12-1.4 17.9-4.3 3.4-1.6 7.2-4.1 11.6-7.4l1.6 2.2c-3.5 3.3-7.4 6.1-12 8.6-7.7 4.2-15.3 6.3-23 6.3-12.6 0-21.4-4-26.7-12-4.8-7.4-5.7-16.7-2.8-27.8 3-11.4 9.2-20.9 18.5-28.7 9.7-8.1 20.7-12.2 32.8-12.2 4.2 0 8.4.6 12.5 1.8M433 245.5c3.2-.4 5.5-1.2 6.8-2.3 1.3-1.1 2.5-3.8 3.6-8l14.7-54.8c.6-2.1.7-3.7.4-4.7-.3-1-1.5-1.5-3.6-1.5-.4 0-.8 0-1.2.1-.4.1-.9.1-1.4.2l.6-2.1c1.8-.5 4-1.1 6.7-1.8 2.6-.7 4.5-1.2 5.5-1.5l5.9-1.7v.4l-9.4 35c3.1-2.7 5.8-4.8 8-6.1 4-2.3 7.9-3.4 11.8-3.4 6.2 0 9.7 2.6 10.5 7.8.5 2.7.1 6.3-1.1 10.8l-6.2 23.3c-1.1 4-1.3 6.7-.7 7.9.6 1.2 2.3 2 5.1 2.4l-.4 1.6h-24.7l.4-1.6c3.4-.5 5.8-1.2 7-2.3 1.2-1.1 2.4-3.7 3.6-7.9l6.2-23.1c1-3.7 1.2-6.7.5-9-.6-2.3-2.6-3.4-6.1-3.4-3 0-6.1 1.1-9.5 3.2-3.3 2.1-5.1 3.5-5.3 4.2l-7.5 28.1c-1.1 4.3-1.4 6.9-.7 8 .7 1.1 2.6 1.8 5.7 2.3l-.4 1.6h-25.2l.4-1.7M506.4 221.9c4.1-2.3 11.9-5.4 23.4-9.3l1.3-4.9c1-3.9 1.4-6.6 1-8.1-.6-2.5-3-3.8-7-3.8-1.9 0-3.9.5-5.9 1.5-2 1-3.3 2.4-3.8 4.2-.1.5-.2 1.2-.3 2.3-.1 1.1-.2 1.8-.3 2.1-.6 2.1-1.7 3.6-3.3 4.5-.9.5-2 .7-3.1.7-1.7 0-2.9-.6-3.5-1.7-.6-1.1-.7-2.4-.4-3.7.7-2.7 3.1-5.5 7.2-8.4 4.1-2.9 9.3-4.4 15.6-4.4 7.4 0 11.7 2.4 13.1 7.2.7 2.6.4 6.4-1 11.5l-6.1 22.9c-.6 2.2-.8 3.7-.8 4.6.1 1.5.9 2.2 2.5 2.2.9 0 1.6-.1 2.3-.4.6-.3 1.8-.9 3.5-1.9l-.8 3c-1.6 1.5-3.3 2.7-4.9 3.7-2.5 1.4-4.9 2.2-7.1 2.2-2.6 0-4.2-.8-4.9-2.5-.7-1.7-.8-3.7-.3-6-3.6 2.5-6.5 4.4-8.9 5.6-4 2.1-7.6 3.1-10.7 3.1-3.3 0-5.8-1.2-7.6-3.5-1.8-2.3-2.2-5.2-1.2-8.8 1.5-5.6 5.5-10.2 12-13.9m22.6-6.5c-4.8 1.4-8.8 3-12.1 4.8-6.4 3.4-10.2 7.2-11.3 11.5-.9 3.5-.5 6 1.4 7.6 1.2 1.1 2.7 1.6 4.5 1.6 2.5 0 5.1-.7 7.8-2.1 2.7-1.4 4.3-3.2 4.9-5.4l4.8-18zM540.6 245.2c3.6-.3 6.1-.9 7.5-1.9 1.4-.9 2.5-2.9 3.3-6l6.9-25.7c1-3.8 1.4-6.5 1.1-8.1-.3-1.6-1.3-2.4-3.2-2.4-.4 0-.9 0-1.6.1-.7.1-1.3.2-2.1.4l.5-1.9c2.4-.8 4.8-1.5 7.3-2.3 2.5-.8 4.2-1.4 5.2-1.7 2.1-.7 4.3-1.5 6.5-2.5.3 0 .4.1.4.3 0 .2-.1.6-.2 1.2l-2.5 9.4c3.3-3.4 6.4-6 9.2-7.9 2.8-1.9 5.4-2.9 7.8-2.9 1.9 0 3.4.6 4.3 1.7.9 1.2 1.1 2.6.7 4.4-.4 1.6-1.2 2.9-2.5 3.9-1.2 1.1-2.5 1.6-3.9 1.6s-2.7-.7-3.8-2c-1.1-1.3-2.1-2-2.9-2-1.3 0-3.3 1.1-5.8 3.2s-4.1 4.4-4.7 6.6l-6.9 25.7c-.9 3.3-.7 5.5.5 6.8 1.2 1.3 3.6 1.9 7.1 1.8l-.5 1.9h-28.1l.4-1.7M623.6 194.4l-1.1 4.1h-11.6l-8.9 32.9c-.8 2.9-1.1 5.1-1 6.6.2 2.6 1.6 3.9 4.3 3.9 1.4 0 2.6-.3 3.8-1 1.2-.6 2.6-1.7 4.3-3.1l1.1 1.3-1.7 1.7c-2.7 2.7-5.3 4.5-7.8 5.6-2.5 1.1-4.8 1.7-6.8 1.7-4.5 0-7-2-7.5-6-.3-2.2.1-5.2 1.1-9l9.3-34.6h-6.2c-.2-.1-.3-.2-.3-.3-.1-.1-.1-.3 0-.5.1-.4.3-.7.5-.9.2-.2.9-.7 2-1.5 3.2-2.2 5.6-3.9 7.1-5.3 1.5-1.3 5.2-4.9 11.1-10.7.5 0 .8 0 .9.1.1.1 0 .4-.1.9l-3.8 14h11.3"></path>
</svg>