<svg id="Layer_1" data-name="Layer 1" xmlns="http://www.w3.org/2000/svg" xmlns:xlink="http://www.w3.org/1999/xlink" viewBox="0 0 323.73 60.91"><defs><style>.cls-1{fill:none;}.cls-2{clip-path:url(#clip-path);}.cls-3{fill:#fff;}.cls-4{fill:#00502f;}.cls-5{fill:#f37321;}</style><clipPath id="clip-path" transform="translate(-175.63 -328.54)"><rect class="cls-1" x="175.63" y="328.54" width="323.73" height="60.91"/></clipPath></defs><g class="cls-2"><path class="cls-3" d="M251.15,351c-.41,0-.53.23-.53.75v13.89c0,1.57.58,2.09,1.51,2.26s1.63.35,1.63,1.05c0,.52-.23.81-1.16.81s-1.63-.23-4.59-.23c-3.14,0-3.95.23-5.11.23-.64,0-1-.23-1-1,0-.35.29-.7.93-.82,2.15-.4,2.38-.93,2.38-2.55V336.62c0-1.57-.52-1.74-1.16-2-1.57-.47-2-.24-2-.93,0-.47.24-.76,1.22-.76s3,.23,4.71.23,3.31-.23,4.41-.23,1.28.23,1.28.81c0,.82-.58.82-1.68,1.05a1.48,1.48,0,0,0-1.4,1.63v12c0,.53.12.7.58.7h10.35c.46,0,.52-.17.52-.81V336.79c0-1.51-.52-1.91-1.45-2.2-1.11-.18-1.75-.24-1.75-.82s.53-.87,1.34-.87c1.16,0,2.38.23,4.65.23,3,0,3.83-.23,4.93-.23.7,0,1,.23,1,.7,0,.7-.81,1-2.09,1.16a1.34,1.34,0,0,0-1.28,1.28v29.51c0,1.34.41,2,1,2.32,1,.53,2.15.41,2.15,1.17,0,.4-.18.69-1.11.69s-2.44-.23-4.76-.23-3.25.23-4.18.23c-1.28,0-1.57-.23-1.57-.93,0-.46.35-.64,1.63-.93s1.45-.81,1.45-2.32V351.67c0-.47-.12-.7-.52-.7Z" transform="translate(-175.63 -328.54)"/><path class="cls-3" d="M274.33,352.13c0,1.1.17,1.39,2.21,1.39a18.85,18.85,0,0,0,2.84-.23c1.75-.23,2.91-.69,3.2-1.16.46-.46.64-1.1.64-2.44,0-3.43-1.57-5.52-3.84-5.52-3,0-5.05,3.84-5.05,7.9Zm1.34,3.2c-1.05,0-1.46.4-1.46,1.33,0,6,2.56,10.63,6.57,10.63a5,5,0,0,0,5.05-3.31c.47-1,.58-1.8,1.05-1.8s.58.18.58.81a6.52,6.52,0,0,1-.81,2.91,7.79,7.79,0,0,1-7.15,4.36c-6.56,0-10.52-5.58-10.52-13.31,0-9.58,4.88-14.46,10.46-14.46,4.65,0,8,3.48,8,9.35,0,3.25-.06,3.49-1.69,3.49Z" transform="translate(-175.63 -328.54)"/><path class="cls-3" d="M293.85,364c0,2.15,1.1,3.25,2.73,3.25a5,5,0,0,0,3.37-1.74,4,4,0,0,0,1.45-3.25v-6.45c0-.64-.11-.76-.4-.76s-.59.06-1.34.64a17.19,17.19,0,0,0-3.25,2.79,7.91,7.91,0,0,0-2.56,5.46Zm7.55-16.32c0-2.73-.75-3.61-2.26-3.61-2.68,0-3.95,2.15-4.77,5a5.85,5.85,0,0,1-1.91,2.9,3.76,3.76,0,0,1-2.33.82c-1.16,0-1.62-.41-1.62-1.57,0-3.43,4.93-8.77,12-8.77,2.21,0,3.6.29,4.47,1s1.28,1.86,1.28,3.43v17.43c0,1.45.52,2.09,1.51,2.09a1.69,1.69,0,0,0,1.75-1.1c.29-.58.4-1.17.81-1.17s.46.29.46,1c0,1.28-1.62,4.88-5.17,4.88-2.49,0-3.13-2-3.54-3.13-.18-.47-.35-.82-.64-.82-.46,0-1.34,1.11-2.73,2.15a8.24,8.24,0,0,1-5.34,2c-2.68,0-4.65-1.86-4.65-5.29,0-2.9,1.57-4.94,6.45-8.13,2-1.28,3.31-2.09,4.24-2.79,1.51-.93,2-1.51,2-2.79Z" transform="translate(-175.63 -328.54)"/><path class="cls-3" d="M312.67,334.3c0-1.11-.29-1.46-1.57-1.69-1-.23-1.33-.29-1.33-.81s.23-.64,1-.87c2.33-.76,3.9-1.34,4.94-1.8.81-.41,1.11-.59,1.4-.59s.4.35.4,1.17v36.36c0,1.46.58,1.57,2.38,2,.64.17,1.17.29,1.17.87a.8.8,0,0,1-.88.75,44.07,44.07,0,0,0-5.05-.23,44.81,44.81,0,0,0-4.82.23c-.41,0-.93-.17-.93-.75s.52-.76,1-.87c2-.29,2.26-.87,2.26-2.39Z" transform="translate(-175.63 -328.54)"/><path class="cls-3" d="M327.14,364.5c0,2.15.7,2.62,1.8,2.62a2.67,2.67,0,0,0,2.15-1.57c.46-.75.75-1.51,1.28-1.51a.52.52,0,0,1,.58.58c0,.76-1.16,5.58-5.81,5.58a4.7,4.7,0,0,1-3.6-1.28,5.67,5.67,0,0,1-1.28-4.12V346.15a.85.85,0,0,0-.64-.88,11.48,11.48,0,0,0-1.34,0c-.52-.06-.93-.12-.93-.76,0-.35.35-.75,1.11-1.51a24,24,0,0,0,5-6.51c.58-1,.7-1.39,1.11-1.39s.58.12.58,1.28V342c0,.93.29,1.28,1.16,1.28h2.61c1,0,1.28.18,1.28,1s-.23,1.22-1.39,1.22h-2.73c-.7,0-.93.23-.93,1.16Z" transform="translate(-175.63 -328.54)"/><path class="cls-3" d="M335.5,334.3c0-1.11-.29-1.46-1.56-1.69-1.05-.23-1.4-.29-1.4-.81s.41-.64,1.63-1a47.22,47.22,0,0,0,4.53-1.74c.75-.35,1-.53,1.34-.53s.34.24.34,1v16.56c0,.35.12.52.35.52a1.26,1.26,0,0,0,.7-.35c1.28-1.16,3.49-3.48,6.8-3.48,3.66,0,6.56,2.38,6.74,7v15.91c0,1.69.64,2.33,1.8,2.5,1,.18,1.33.35,1.33.82s-.4.69-.87.69c-.29,0-1.86-.23-4.59-.23a40.25,40.25,0,0,0-4.35.23c-.7,0-1.05-.17-1.05-.75s.35-.58.93-.7c1.33-.29,1.92-.7,1.92-2V350.45a5,5,0,0,0-1-3.26,4,4,0,0,0-3.31-1.39,6.14,6.14,0,0,0-3.78,1.45,4.44,4.44,0,0,0-1.63,3.31V366c0,1.27.64,1.91,2.27,2.26.87.18,1.05.35,1.05.76s-.41.69-.88.69a38.19,38.19,0,0,0-5.05-.23c-3,0-3.54.23-4.42.23-.46,0-.87-.23-.87-.75s.41-.76.93-.87c1.75-.18,2.09-.76,2.09-2.85Z" transform="translate(-175.63 -328.54)"/><path class="cls-3" d="M176.73,381.08h1.94v5.56c0,.82.31,1.33,1.08,1.33s1.09-.51,1.09-1.33v-5.56h1.94v5.25a3,3,0,1,1-6.05,0Z" transform="translate(-175.63 -328.54)"/></g><polygon class="cls-3" points="12.44 52.53 12.44 58.24 12.42 58.24 10.02 52.53 7.76 52.53 7.76 60.77 9.46 60.77 9.46 54.81 9.48 54.81 11.85 60.77 14.14 60.77 14.14 52.53 12.44 52.53"/><rect class="cls-3" x="14.84" y="52.53" width="1.94" height="8.24"/><polygon class="cls-3" points="22.09 52.53 20.61 58.54 20.59 58.54 19.13 52.53 17.06 52.53 19.51 60.77 21.59 60.77 24.08 52.53 22.09 52.53"/><polygon class="cls-3" points="24.36 52.53 24.36 60.77 29.26 60.77 29.26 59.33 26.23 59.33 26.23 57.25 28.98 57.25 28.98 55.81 26.23 55.81 26.23 53.97 29.12 53.97 29.12 52.53 24.36 52.53"/><g class="cls-2"><path class="cls-3" d="M207.16,384.59h.6a1,1,0,0,0,1.13-1.08c0-.34-.1-1-1.14-1h-.59Zm-1.87-3.51h3c1.36,0,2.52.6,2.52,2.12a1.93,1.93,0,0,1-1.64,2v0c.6.07.84.4,1.14,1.38l.85,2.69h-2l-.64-2.2c-.31-1.12-.57-1.12-1.28-1.12v3.32h-1.94Z" transform="translate(-175.63 -328.54)"/><path class="cls-3" d="M216,382.75a4,4,0,0,0-1.63-.42c-.62,0-1.1.28-1.1.89,0,1.5,3.25.81,3.25,3.73a2.58,2.58,0,0,1-2.88,2.51,7.72,7.72,0,0,1-2.22-.35l.11-1.6a4.66,4.66,0,0,0,1.8.51c.62,0,1.21-.31,1.21-1,0-1.6-3.25-.82-3.25-3.76,0-.24.09-2.35,2.86-2.35a7.76,7.76,0,0,1,1.93.29Z" transform="translate(-175.63 -328.54)"/></g><rect class="cls-3" x="41.34" y="52.53" width="1.94" height="8.24"/><polygon class="cls-3" points="43.66 52.53 43.66 54.02 45.45 54.02 45.45 60.77 47.38 60.77 47.38 54.02 49.18 54.02 49.18 52.53 43.66 52.53"/><polygon class="cls-3" points="53.57 52.53 52.34 55.72 51.02 52.53 48.8 52.53 51.3 57.62 51.3 60.77 53.24 60.77 53.24 57.65 55.74 52.53 53.57 52.53"/><g class="cls-2"><path class="cls-3" d="M236.85,388.06c1.12,0,1.52-1.28,1.52-2.86s-.4-2.87-1.52-2.87-1.51,1.28-1.51,2.87.39,2.86,1.51,2.86m0-7.13c2.37,0,3.5,1.85,3.5,4.27s-1.13,4.26-3.5,4.26-3.49-1.85-3.49-4.26,1.12-4.27,3.49-4.27" transform="translate(-175.63 -328.54)"/></g><polygon class="cls-3" points="65.22 52.53 65.22 60.77 67.08 60.77 67.08 57.32 69.68 57.32 69.68 55.88 67.08 55.88 67.08 53.97 69.78 53.97 69.78 52.53 65.22 52.53"/><polygon class="cls-3" points="78.49 52.53 77.05 57.83 77.03 57.83 75.7 52.53 72.78 52.53 72.78 60.77 74.55 60.77 74.55 54.26 74.58 54.26 76.36 60.77 77.63 60.77 79.48 54.26 79.51 54.26 79.51 60.77 81.28 60.77 81.28 52.53 78.49 52.53"/><rect class="cls-3" x="82.25" y="52.53" width="1.94" height="8.24"/><path class="cls-3" d="M263.84,382.66h0l.85,3.42h-1.85Zm-1-1.58-2.74,8.23h1.87l.57-1.84h2.58l.51,1.84h2l-2.64-8.23Z" transform="translate(-175.63 -328.54)"/><polygon class="cls-3" points="97.92 52.53 96.48 57.83 96.45 57.83 95.12 52.53 92.21 52.53 92.21 60.77 93.98 60.77 93.98 54.26 94 54.26 95.78 60.77 97.06 60.77 98.91 54.26 98.93 54.26 98.93 60.77 100.7 60.77 100.7 52.53 97.92 52.53"/><rect class="cls-3" x="101.67" y="52.53" width="1.94" height="8.24"/><polygon class="cls-3" points="111.47 52.53 111.47 55.81 109.46 55.81 109.46 52.53 107.52 52.53 107.52 60.77 109.46 60.77 109.46 57.35 111.47 57.35 111.47 60.77 113.4 60.77 113.4 52.53 111.47 52.53"/><polygon class="cls-3" points="114.13 52.53 114.13 60.77 119.03 60.77 119.03 59.33 116 59.33 116 57.25 118.75 57.25 118.75 55.81 116 55.81 116 53.97 118.89 53.97 118.89 52.53 114.13 52.53"/><path class="cls-3" d="M298.36,382.66h0l.85,3.42h-1.85Zm-1-1.58-2.74,8.23h1.87l.56-1.84h2.59l.51,1.84h2l-2.65-8.23Z" transform="translate(-175.63 -328.54)"/><polygon class="cls-3" points="126.72 52.53 126.72 60.77 131.39 60.77 131.39 59.28 128.66 59.28 128.66 52.53 126.72 52.53"/><polygon class="cls-3" points="130.51 52.53 130.51 54.02 132.31 54.02 132.31 60.77 134.24 60.77 134.24 54.02 136.04 54.02 136.04 52.53 130.51 52.53"/><polygon class="cls-3" points="140.35 52.53 140.35 55.81 138.35 55.81 138.35 52.53 136.41 52.53 136.41 60.77 138.35 60.77 138.35 57.35 140.35 57.35 140.35 60.77 142.29 60.77 142.29 52.53 140.35 52.53"/><g class="cls-2"><path class="cls-3" d="M325.85,382.75a4,4,0,0,0-1.62-.42c-.63,0-1.1.28-1.1.89,0,1.5,3.24.81,3.24,3.73a2.58,2.58,0,0,1-2.88,2.51,7.63,7.63,0,0,1-2.21-.35l.1-1.6a4.76,4.76,0,0,0,1.81.51c.61,0,1.2-.31,1.2-1,0-1.6-3.24-.82-3.24-3.76,0-.24.09-2.35,2.85-2.35a7.77,7.77,0,0,1,1.94.29Z" transform="translate(-175.63 -328.54)"/></g><polygon class="cls-3" points="155.26 52.53 154.03 55.72 152.71 52.53 150.49 52.53 152.99 57.62 152.99 60.77 154.93 60.77 154.93 57.65 157.43 52.53 155.26 52.53"/><g class="cls-2"><path class="cls-3" d="M337.56,382.75a4,4,0,0,0-1.63-.42c-.62,0-1.09.28-1.09.89,0,1.5,3.24.81,3.24,3.73a2.58,2.58,0,0,1-2.88,2.51,7.78,7.78,0,0,1-2.22-.35l.11-1.6a4.71,4.71,0,0,0,1.8.51c.62,0,1.21-.31,1.21-1,0-1.6-3.25-.82-3.25-3.76,0-.24.1-2.35,2.86-2.35a7.69,7.69,0,0,1,1.93.29Z" transform="translate(-175.63 -328.54)"/></g><polygon class="cls-3" points="162.36 52.53 162.36 54.02 164.16 54.02 164.16 60.77 166.09 60.77 166.09 54.02 167.89 54.02 167.89 52.53 162.36 52.53"/><polygon class="cls-3" points="168.26 52.53 168.26 60.77 173.16 60.77 173.16 59.33 170.13 59.33 170.13 57.25 172.88 57.25 172.88 55.81 170.13 55.81 170.13 53.97 173.02 53.97 173.02 52.53 168.26 52.53"/><polygon class="cls-3" points="179.51 52.53 178.07 57.83 178.05 57.83 176.72 52.53 173.8 52.53 173.8 60.77 175.57 60.77 175.57 54.26 175.59 54.26 177.38 60.77 178.65 60.77 180.5 54.26 180.53 54.26 180.53 60.77 182.3 60.77 182.3 52.53 179.51 52.53"/><rect class="cls-3" x="1.24" y="46.37" width="181.2" height="1.03"/><g class="cls-2"><path class="cls-3" d="M222.16,331.88l.05,26.64c0,1.71,0,6.9-13.07,6.92h-2.46c-13.07,0-13.07-5.21-13.07-6.92l0-26.64h-18l0,30.64c0,8.47,23.76,9.13,31,9.13h2.44c7.29,0,31-.66,31-9.13l0-30.64Z" transform="translate(-175.63 -328.54)"/><path class="cls-4" d="M223.55,358.52V333.18h15.29s0,28.32,0,29.34c0,5.56-15.26,7.79-29.7,7.79,0-.7,0-2.42,0-3.53,7.22,0,14.41-1.54,14.41-8.26" transform="translate(-175.63 -328.54)"/><path class="cls-5" d="M192.27,358.52V333.18H177s0,28.32,0,29.34c0,5.56,15.27,7.79,29.7,7.79,0-.7,0-2.42,0-3.53-7.22,0-14.41-1.54-14.41-8.26" transform="translate(-175.63 -328.54)"/></g><rect class="cls-3" x="198.66" y="3.3" width="0.48" height="57.61"/><polygon class="cls-3" points="246.75 12.4 246.75 46.43 240.98 46.43 227.71 25.37 227.71 46.43 221.15 46.43 221.15 12.4 226.88 12.4 240.19 33.76 240.19 12.4 246.75 12.4"/><g class="cls-2"><path class="cls-3" d="M434.66,360.38c0,6.51,2.12,9.22,6.12,9.22s6.16-2.71,6.16-9.22v-4.83c0-6.51-2.17-9.23-6.16-9.23s-6.12,2.72-6.12,9.23Zm6.12,15c-7.65,0-13-4.63-13-15v-4.83c0-10.51,5.37-15,13-15s13.07,4.53,13.07,15v4.83c0,10.41-5.38,15-13.07,15" transform="translate(-175.63 -328.54)"/></g><polygon class="cls-3" points="316.29 12.4 311.8 34.94 305.14 12.4 298.93 12.4 292.47 34.79 287.93 12.4 280.53 12.4 288.33 46.43 294.88 46.43 302.08 23.01 309.28 46.43 315.89 46.43 323.73 12.4 316.29 12.4"/></svg>